<mxfile host="app.diagrams.net" modified="2022-02-25T08:53:46.155Z" agent="5.0 (X11; Linux x86_64) AppleWebKit/537.36 (KHTML, like Gecko) Chrome/98.0.4758.102 Safari/537.36" etag="4pLM7mzUUMFVDjF63eLi" version="16.6.4" type="github">
  <diagram id="bG1_4FnBX-6zYvyiUzrF" name="Page-1">
    <mxGraphModel dx="2619" dy="1333" grid="1" gridSize="10" guides="1" tooltips="1" connect="1" arrows="1" fold="1" page="1" pageScale="1" pageWidth="850" pageHeight="1100" math="0" shadow="0">
      <root>
        <mxCell id="0" />
        <mxCell id="1" parent="0" />
        <mxCell id="eA0GZByuVW9Jl5713gXx-1" value="&lt;span&gt;entropy_loss&lt;/span&gt;" style="rounded=0;whiteSpace=wrap;html=1;" vertex="1" parent="1">
          <mxGeometry x="2370" y="950" width="120" height="60" as="geometry" />
        </mxCell>
        <mxCell id="eA0GZByuVW9Jl5713gXx-2" value="vtrace_pg_loss" style="rounded=0;whiteSpace=wrap;html=1;" vertex="1" parent="1">
          <mxGeometry x="2370" y="560" width="120" height="60" as="geometry" />
        </mxCell>
        <mxCell id="eA0GZByuVW9Jl5713gXx-3" value="baseline_loss" style="rounded=0;whiteSpace=wrap;html=1;" vertex="1" parent="1">
          <mxGeometry x="2370" y="770" width="120" height="60" as="geometry" />
        </mxCell>
        <mxCell id="eA0GZByuVW9Jl5713gXx-10" style="edgeStyle=orthogonalEdgeStyle;rounded=0;orthogonalLoop=1;jettySize=auto;html=1;entryX=0;entryY=0.5;entryDx=0;entryDy=0;" edge="1" parent="1" source="eA0GZByuVW9Jl5713gXx-4" target="eA0GZByuVW9Jl5713gXx-2">
          <mxGeometry relative="1" as="geometry" />
        </mxCell>
        <mxCell id="eA0GZByuVW9Jl5713gXx-4" value="&lt;div style=&quot;color: rgb(212 , 212 , 212) ; background-color: rgb(30 , 30 , 30) ; font-family: &amp;#34;droid sans mono&amp;#34; , &amp;#34;monospace&amp;#34; , monospace ; font-size: 14px ; line-height: 19px&quot;&gt;&lt;div&gt;&lt;span style=&quot;background-color: rgb(30 , 30 , 30) ; color: rgb(156 , 220 , 254)&quot;&gt;vtrace_returns&lt;/span&gt;&lt;span style=&quot;background-color: rgb(30 , 30 , 30) ; color: rgb(212 , 212 , 212)&quot;&gt;.&lt;/span&gt;&lt;span style=&quot;background-color: rgb(30 , 30 , 30) ; color: rgb(156 , 220 , 254)&quot;&gt;pg_advantages&lt;/span&gt;&lt;br&gt;&lt;/div&gt;&lt;/div&gt;" style="rounded=0;whiteSpace=wrap;html=1;" vertex="1" parent="1">
          <mxGeometry x="1920" y="640" width="260" height="30" as="geometry" />
        </mxCell>
        <mxCell id="eA0GZByuVW9Jl5713gXx-8" style="edgeStyle=orthogonalEdgeStyle;rounded=0;orthogonalLoop=1;jettySize=auto;html=1;" edge="1" parent="1" source="eA0GZByuVW9Jl5713gXx-6" target="eA0GZByuVW9Jl5713gXx-1">
          <mxGeometry relative="1" as="geometry" />
        </mxCell>
        <mxCell id="eA0GZByuVW9Jl5713gXx-6" value="&lt;div style=&quot;color: rgb(212 , 212 , 212) ; background-color: rgb(30 , 30 , 30) ; font-family: &amp;#34;droid sans mono&amp;#34; , &amp;#34;monospace&amp;#34; , monospace ; font-size: 14px ; line-height: 19px&quot;&gt;&lt;span style=&quot;color: rgb(156 , 220 , 254)&quot;&gt;learner_outputs&lt;/span&gt;[&lt;span style=&quot;color: rgb(206 , 145 , 120)&quot;&gt;&quot;policy_logits&quot;&lt;/span&gt;]&lt;/div&gt;" style="rounded=0;whiteSpace=wrap;html=1;" vertex="1" parent="1">
          <mxGeometry x="1980" y="960" width="300" height="40" as="geometry" />
        </mxCell>
        <mxCell id="eA0GZByuVW9Jl5713gXx-146" style="edgeStyle=orthogonalEdgeStyle;rounded=0;orthogonalLoop=1;jettySize=auto;html=1;entryX=0;entryY=0.5;entryDx=0;entryDy=0;" edge="1" parent="1" source="eA0GZByuVW9Jl5713gXx-11" target="eA0GZByuVW9Jl5713gXx-3">
          <mxGeometry relative="1" as="geometry" />
        </mxCell>
        <mxCell id="eA0GZByuVW9Jl5713gXx-11" value="&lt;span style=&quot;color: rgb(156 , 220 , 254) ; font-family: &amp;#34;droid sans mono&amp;#34; , &amp;#34;monospace&amp;#34; , monospace ; font-size: 14px&quot;&gt;learner_outputs&lt;/span&gt;&lt;span style=&quot;color: rgb(205 , 200 , 194) ; font-family: &amp;#34;droid sans mono&amp;#34; , &amp;#34;monospace&amp;#34; , monospace ; font-size: 14px ; background-color: rgb(23 , 24 , 25)&quot;&gt;[&lt;/span&gt;&lt;span style=&quot;color: rgb(206 , 145 , 120) ; font-family: &amp;#34;droid sans mono&amp;#34; , &amp;#34;monospace&amp;#34; , monospace ; font-size: 14px&quot;&gt;&quot;baseline&quot;&lt;/span&gt;&lt;span style=&quot;color: rgb(205 , 200 , 194) ; font-family: &amp;#34;droid sans mono&amp;#34; , &amp;#34;monospace&amp;#34; , monospace ; font-size: 14px ; background-color: rgb(23 , 24 , 25)&quot;&gt;]&lt;/span&gt;" style="rounded=0;whiteSpace=wrap;html=1;" vertex="1" parent="1">
          <mxGeometry x="2030" y="830" width="250" height="40" as="geometry" />
        </mxCell>
        <mxCell id="eA0GZByuVW9Jl5713gXx-147" style="edgeStyle=orthogonalEdgeStyle;rounded=0;orthogonalLoop=1;jettySize=auto;html=1;" edge="1" parent="1" source="eA0GZByuVW9Jl5713gXx-12" target="eA0GZByuVW9Jl5713gXx-3">
          <mxGeometry relative="1" as="geometry" />
        </mxCell>
        <mxCell id="eA0GZByuVW9Jl5713gXx-12" value="&lt;div style=&quot;color: rgb(212 , 212 , 212) ; background-color: rgb(30 , 30 , 30) ; font-family: &amp;#34;droid sans mono&amp;#34; , &amp;#34;monospace&amp;#34; , monospace ; font-size: 14px ; line-height: 19px&quot;&gt;&lt;/div&gt;&lt;span style=&quot;color: rgb(156 , 220 , 254) ; font-family: &amp;#34;droid sans mono&amp;#34; , &amp;#34;monospace&amp;#34; , monospace ; font-size: 14px&quot;&gt;vtrace_returns&lt;/span&gt;&lt;span style=&quot;color: rgb(205 , 200 , 194) ; font-family: &amp;#34;droid sans mono&amp;#34; , &amp;#34;monospace&amp;#34; , monospace ; font-size: 14px ; background-color: rgb(23 , 24 , 25)&quot;&gt;.&lt;/span&gt;&lt;span style=&quot;color: rgb(156 , 220 , 254) ; font-family: &amp;#34;droid sans mono&amp;#34; , &amp;#34;monospace&amp;#34; , monospace ; font-size: 14px&quot;&gt;vs&lt;br&gt;&lt;/span&gt;" style="rounded=0;whiteSpace=wrap;html=1;" vertex="1" parent="1">
          <mxGeometry x="2110" y="750" width="170" height="50" as="geometry" />
        </mxCell>
        <mxCell id="eA0GZByuVW9Jl5713gXx-144" style="edgeStyle=orthogonalEdgeStyle;rounded=0;orthogonalLoop=1;jettySize=auto;html=1;entryX=0;entryY=0.5;entryDx=0;entryDy=0;" edge="1" parent="1" source="eA0GZByuVW9Jl5713gXx-16" target="eA0GZByuVW9Jl5713gXx-2">
          <mxGeometry relative="1" as="geometry" />
        </mxCell>
        <mxCell id="eA0GZByuVW9Jl5713gXx-16" value="&lt;div style=&quot;color: rgb(205 , 200 , 194) ; font-family: &amp;#34;droid sans mono&amp;#34; , &amp;#34;monospace&amp;#34; , monospace ; font-size: 14px&quot;&gt;&lt;span style=&quot;color: rgb(156 , 220 , 254)&quot;&gt;learner_outputs&lt;/span&gt;[&lt;span style=&quot;color: rgb(206 , 145 , 120)&quot;&gt;&quot;policy_logits&quot;&lt;/span&gt;]&lt;/div&gt;" style="rounded=0;whiteSpace=wrap;html=1;" vertex="1" parent="1">
          <mxGeometry x="1880" y="500" width="300" height="40" as="geometry" />
        </mxCell>
        <mxCell id="eA0GZByuVW9Jl5713gXx-143" style="edgeStyle=orthogonalEdgeStyle;rounded=0;orthogonalLoop=1;jettySize=auto;html=1;entryX=0;entryY=0.5;entryDx=0;entryDy=0;" edge="1" parent="1" source="eA0GZByuVW9Jl5713gXx-17" target="eA0GZByuVW9Jl5713gXx-2">
          <mxGeometry relative="1" as="geometry" />
        </mxCell>
        <mxCell id="eA0GZByuVW9Jl5713gXx-17" value="&lt;span style=&quot;color: rgb(156 , 220 , 254) ; font-family: &amp;#34;droid sans mono&amp;#34; , &amp;#34;monospace&amp;#34; , monospace ; font-size: 14px&quot;&gt;batch&lt;/span&gt;&lt;span style=&quot;color: rgb(197 , 192 , 184) ; font-family: &amp;#34;droid sans mono&amp;#34; , &amp;#34;monospace&amp;#34; , monospace ; font-size: 14px&quot;&gt;[&lt;/span&gt;&lt;span style=&quot;color: rgb(206 , 145 , 120) ; font-family: &amp;#34;droid sans mono&amp;#34; , &amp;#34;monospace&amp;#34; , monospace ; font-size: 14px&quot;&gt;&quot;action&quot;&lt;/span&gt;&lt;span style=&quot;color: rgb(197 , 192 , 184) ; font-family: &amp;#34;droid sans mono&amp;#34; , &amp;#34;monospace&amp;#34; , monospace ; font-size: 14px&quot;&gt;]&lt;/span&gt;" style="rounded=0;whiteSpace=wrap;html=1;" vertex="1" parent="1">
          <mxGeometry x="1980" y="570" width="200" height="40" as="geometry" />
        </mxCell>
        <mxCell id="eA0GZByuVW9Jl5713gXx-23" value="&lt;div style=&quot;color: rgb(212 , 212 , 212) ; background-color: rgb(30 , 30 , 30) ; font-family: &amp;#34;droid sans mono&amp;#34; , &amp;#34;monospace&amp;#34; , monospace ; font-size: 14px ; line-height: 19px&quot;&gt;&lt;span style=&quot;color: rgb(156 , 220 , 254)&quot;&gt;teacher_kl_loss&lt;/span&gt;&lt;/div&gt;" style="rounded=0;whiteSpace=wrap;html=1;" vertex="1" parent="1">
          <mxGeometry x="2355" y="195" width="150" height="60" as="geometry" />
        </mxCell>
        <mxCell id="eA0GZByuVW9Jl5713gXx-206" style="edgeStyle=orthogonalEdgeStyle;rounded=0;orthogonalLoop=1;jettySize=auto;html=1;entryX=0;entryY=0.5;entryDx=0;entryDy=0;" edge="1" parent="1" source="eA0GZByuVW9Jl5713gXx-24" target="eA0GZByuVW9Jl5713gXx-47">
          <mxGeometry relative="1" as="geometry" />
        </mxCell>
        <mxCell id="eA0GZByuVW9Jl5713gXx-24" value="&lt;div style=&quot;color: rgb(212 , 212 , 212) ; background-color: rgb(30 , 30 , 30) ; font-family: &amp;#34;droid sans mono&amp;#34; , &amp;#34;monospace&amp;#34; , monospace ; font-size: 14px ; line-height: 19px&quot;&gt;&lt;span style=&quot;color: rgb(135 , 213 , 254)&quot;&gt;upgo_returns&lt;/span&gt;&lt;br&gt;&lt;/div&gt;" style="rounded=0;whiteSpace=wrap;html=1;" vertex="1" parent="1">
          <mxGeometry x="555" y="250" width="120" height="60" as="geometry" />
        </mxCell>
        <mxCell id="eA0GZByuVW9Jl5713gXx-29" style="edgeStyle=orthogonalEdgeStyle;rounded=0;orthogonalLoop=1;jettySize=auto;html=1;entryX=0;entryY=0.5;entryDx=0;entryDy=0;" edge="1" parent="1" source="eA0GZByuVW9Jl5713gXx-26" target="eA0GZByuVW9Jl5713gXx-23">
          <mxGeometry relative="1" as="geometry" />
        </mxCell>
        <mxCell id="eA0GZByuVW9Jl5713gXx-26" value="&lt;span style=&quot;color: rgb(156 , 220 , 254) ; font-family: &amp;#34;droid sans mono&amp;#34; , &amp;#34;monospace&amp;#34; , monospace ; font-size: 14px ; background-color: rgb(23 , 24 , 25)&quot;&gt;teacher_outputs&lt;/span&gt;&lt;span style=&quot;color: rgb(205 , 200 , 194) ; font-family: &amp;#34;droid sans mono&amp;#34; , &amp;#34;monospace&amp;#34; , monospace ; font-size: 14px ; background-color: rgb(23 , 24 , 25)&quot;&gt;[&lt;/span&gt;&lt;span style=&quot;color: rgb(206 , 145 , 120) ; font-family: &amp;#34;droid sans mono&amp;#34; , &amp;#34;monospace&amp;#34; , monospace ; font-size: 14px ; background-color: rgb(23 , 24 , 25)&quot;&gt;&quot;policy_logits&quot;&lt;/span&gt;&lt;span style=&quot;color: rgb(205 , 200 , 194) ; font-family: &amp;#34;droid sans mono&amp;#34; , &amp;#34;monospace&amp;#34; , monospace ; font-size: 14px ; background-color: rgb(23 , 24 , 25)&quot;&gt;]&lt;/span&gt;&lt;span style=&quot;color: rgb(205 , 200 , 194) ; font-family: &amp;#34;droid sans mono&amp;#34; , &amp;#34;monospace&amp;#34; , monospace ; font-size: 14px ; background-color: rgb(23 , 24 , 25)&quot;&gt;[&lt;/span&gt;&lt;span style=&quot;color: rgb(156 , 220 , 254) ; font-family: &amp;#34;droid sans mono&amp;#34; , &amp;#34;monospace&amp;#34; , monospace ; font-size: 14px ; background-color: rgb(23 , 24 , 25)&quot;&gt;act_space&lt;/span&gt;&lt;span style=&quot;color: rgb(205 , 200 , 194) ; font-family: &amp;#34;droid sans mono&amp;#34; , &amp;#34;monospace&amp;#34; , monospace ; font-size: 14px ; background-color: rgb(23 , 24 , 25)&quot;&gt;]&lt;/span&gt;" style="rounded=0;whiteSpace=wrap;html=1;" vertex="1" parent="1">
          <mxGeometry x="1910" y="140" width="380" height="40" as="geometry" />
        </mxCell>
        <mxCell id="eA0GZByuVW9Jl5713gXx-215" style="edgeStyle=orthogonalEdgeStyle;rounded=0;orthogonalLoop=1;jettySize=auto;html=1;entryX=0;entryY=0.5;entryDx=0;entryDy=0;" edge="1" parent="1" source="eA0GZByuVW9Jl5713gXx-27" target="eA0GZByuVW9Jl5713gXx-211">
          <mxGeometry relative="1" as="geometry" />
        </mxCell>
        <mxCell id="eA0GZByuVW9Jl5713gXx-27" value="&lt;div style=&quot;color: rgb(212 , 212 , 212) ; background-color: rgb(30 , 30 , 30) ; font-family: &amp;#34;droid sans mono&amp;#34; , &amp;#34;monospace&amp;#34; , monospace ; font-size: 14px ; line-height: 19px&quot;&gt;&lt;div style=&quot;color: rgb(212 , 212 , 212) ; background-color: rgb(30 , 30 , 30) ; font-family: &amp;#34;droid sans mono&amp;#34; , &amp;#34;monospace&amp;#34; , monospace ; line-height: 19px&quot;&gt;&lt;div style=&quot;color: rgb(212 , 212 , 212) ; background-color: rgb(30 , 30 , 30) ; font-family: &amp;#34;droid sans mono&amp;#34; , &amp;#34;monospace&amp;#34; , monospace ; line-height: 19px&quot;&gt;&lt;span style=&quot;color: rgb(156 , 220 , 254)&quot;&gt;learner_outputs&lt;/span&gt;[&lt;span style=&quot;color: rgb(206 , 145 , 120)&quot;&gt;&quot;policy_logits&quot;&lt;/span&gt;][&lt;span style=&quot;color: rgb(156 , 220 , 254)&quot;&gt;act_space&lt;/span&gt;]&lt;/div&gt;&lt;/div&gt;&lt;/div&gt;" style="rounded=0;whiteSpace=wrap;html=1;" vertex="1" parent="1">
          <mxGeometry x="1590" y="205" width="380" height="40" as="geometry" />
        </mxCell>
        <mxCell id="eA0GZByuVW9Jl5713gXx-35" style="edgeStyle=orthogonalEdgeStyle;rounded=0;orthogonalLoop=1;jettySize=auto;html=1;entryX=0;entryY=0.5;entryDx=0;entryDy=0;" edge="1" parent="1" source="eA0GZByuVW9Jl5713gXx-32" target="eA0GZByuVW9Jl5713gXx-24">
          <mxGeometry relative="1" as="geometry" />
        </mxCell>
        <mxCell id="eA0GZByuVW9Jl5713gXx-32" value="&lt;div style=&quot;color: rgb(212 , 212 , 212) ; background-color: rgb(30 , 30 , 30) ; font-family: &amp;#34;droid sans mono&amp;#34; , &amp;#34;monospace&amp;#34; , monospace ; font-size: 14px ; line-height: 19px&quot;&gt;&amp;nbsp;&lt;span style=&quot;color: rgb(156 , 220 , 254)&quot;&gt;learner_outputs&lt;/span&gt;[&lt;span style=&quot;color: rgb(206 , 145 , 120)&quot;&gt;&quot;baseline&quot;&lt;/span&gt;][-&lt;span style=&quot;color: rgb(181 , 206 , 168)&quot;&gt;1&lt;/span&gt;]&lt;/div&gt;" style="rounded=0;whiteSpace=wrap;html=1;" vertex="1" parent="1">
          <mxGeometry x="50" y="320" width="290" height="40" as="geometry" />
        </mxCell>
        <mxCell id="eA0GZByuVW9Jl5713gXx-36" style="edgeStyle=orthogonalEdgeStyle;rounded=0;orthogonalLoop=1;jettySize=auto;html=1;entryX=0;entryY=0.5;entryDx=0;entryDy=0;" edge="1" parent="1" source="eA0GZByuVW9Jl5713gXx-33" target="eA0GZByuVW9Jl5713gXx-24">
          <mxGeometry relative="1" as="geometry" />
        </mxCell>
        <mxCell id="eA0GZByuVW9Jl5713gXx-33" value="&lt;div style=&quot;color: rgb(212 , 212 , 212) ; background-color: rgb(30 , 30 , 30) ; font-family: &amp;#34;droid sans mono&amp;#34; , &amp;#34;monospace&amp;#34; , monospace ; font-size: 14px ; line-height: 19px&quot;&gt;&lt;span style=&quot;color: rgb(156 , 220 , 254)&quot;&gt;learner_outputs&lt;/span&gt;[&lt;span style=&quot;color: rgb(206 , 145 , 120)&quot;&gt;&quot;baseline&quot;&lt;/span&gt;]&lt;/div&gt;" style="rounded=0;whiteSpace=wrap;html=1;" vertex="1" parent="1">
          <mxGeometry x="50" y="260" width="290" height="40" as="geometry" />
        </mxCell>
        <mxCell id="eA0GZByuVW9Jl5713gXx-37" style="edgeStyle=orthogonalEdgeStyle;rounded=0;orthogonalLoop=1;jettySize=auto;html=1;entryX=0;entryY=0.5;entryDx=0;entryDy=0;" edge="1" parent="1" source="eA0GZByuVW9Jl5713gXx-34" target="eA0GZByuVW9Jl5713gXx-24">
          <mxGeometry relative="1" as="geometry" />
        </mxCell>
        <mxCell id="eA0GZByuVW9Jl5713gXx-34" value="&lt;div style=&quot;color: rgb(212 , 212 , 212) ; background-color: rgb(30 , 30 , 30) ; font-family: &amp;#34;droid sans mono&amp;#34; , &amp;#34;monospace&amp;#34; , monospace ; font-size: 14px ; line-height: 19px&quot;&gt;&lt;span style=&quot;color: rgb(156 , 220 , 254)&quot;&gt;batch&lt;/span&gt;[&lt;span style=&quot;color: rgb(206 , 145 , 120)&quot;&gt;&quot;reward&quot;&lt;/span&gt;]&lt;/div&gt;" style="rounded=0;whiteSpace=wrap;html=1;" vertex="1" parent="1">
          <mxGeometry x="50" y="210" width="290" height="30" as="geometry" />
        </mxCell>
        <mxCell id="eA0GZByuVW9Jl5713gXx-41" style="edgeStyle=orthogonalEdgeStyle;rounded=0;orthogonalLoop=1;jettySize=auto;html=1;entryX=0;entryY=0.5;entryDx=0;entryDy=0;" edge="1" parent="1" source="eA0GZByuVW9Jl5713gXx-38" target="eA0GZByuVW9Jl5713gXx-39">
          <mxGeometry relative="1" as="geometry" />
        </mxCell>
        <mxCell id="eA0GZByuVW9Jl5713gXx-38" value="&lt;div style=&quot;color: rgb(212 , 212 , 212) ; background-color: rgb(30 , 30 , 30) ; font-family: &amp;#34;droid sans mono&amp;#34; , &amp;#34;monospace&amp;#34; , monospace ; font-size: 14px ; line-height: 19px&quot;&gt;&lt;span style=&quot;color: rgb(156 , 220 , 254)&quot;&gt;upgo_clipped_importance&lt;/span&gt;&lt;/div&gt;" style="rounded=0;whiteSpace=wrap;html=1;" vertex="1" parent="1">
          <mxGeometry x="810" y="155" width="280" height="50" as="geometry" />
        </mxCell>
        <mxCell id="eA0GZByuVW9Jl5713gXx-39" value="&lt;div style=&quot;color: rgb(212 , 212 , 212) ; background-color: rgb(30 , 30 , 30) ; font-family: &amp;#34;droid sans mono&amp;#34; , &amp;#34;monospace&amp;#34; , monospace ; font-size: 14px ; line-height: 19px&quot;&gt;&lt;div style=&quot;color: rgb(212 , 212 , 212) ; background-color: rgb(30 , 30 , 30) ; font-family: &amp;#34;droid sans mono&amp;#34; , &amp;#34;monospace&amp;#34; , monospace ; line-height: 19px&quot;&gt;&lt;span style=&quot;color: rgb(156 , 220 , 254)&quot;&gt;upgo_pg_loss&lt;/span&gt;&lt;/div&gt;&lt;/div&gt;" style="rounded=0;whiteSpace=wrap;html=1;" vertex="1" parent="1">
          <mxGeometry x="1275" y="190" width="140" height="50" as="geometry" />
        </mxCell>
        <mxCell id="eA0GZByuVW9Jl5713gXx-46" style="edgeStyle=orthogonalEdgeStyle;rounded=0;orthogonalLoop=1;jettySize=auto;html=1;entryX=0;entryY=0.5;entryDx=0;entryDy=0;" edge="1" parent="1" source="eA0GZByuVW9Jl5713gXx-42" target="eA0GZByuVW9Jl5713gXx-38">
          <mxGeometry relative="1" as="geometry" />
        </mxCell>
        <mxCell id="eA0GZByuVW9Jl5713gXx-42" value="&lt;div style=&quot;color: rgb(212 , 212 , 212) ; background-color: rgb(30 , 30 , 30) ; font-family: &amp;#34;droid sans mono&amp;#34; , &amp;#34;monospace&amp;#34; , monospace ; font-size: 14px ; line-height: 19px&quot;&gt;&lt;span style=&quot;color: rgb(156 , 220 , 254)&quot;&gt;vtrace_returns&lt;/span&gt;.&lt;span style=&quot;color: rgb(156 , 220 , 254)&quot;&gt;log_rhos&lt;/span&gt;.exp(),&lt;/div&gt;" style="rounded=0;whiteSpace=wrap;html=1;" vertex="1" parent="1">
          <mxGeometry x="395" y="90" width="280" height="50" as="geometry" />
        </mxCell>
        <mxCell id="eA0GZByuVW9Jl5713gXx-45" style="edgeStyle=orthogonalEdgeStyle;rounded=0;orthogonalLoop=1;jettySize=auto;html=1;entryX=0;entryY=0.5;entryDx=0;entryDy=0;" edge="1" parent="1" source="eA0GZByuVW9Jl5713gXx-44" target="eA0GZByuVW9Jl5713gXx-38">
          <mxGeometry relative="1" as="geometry" />
        </mxCell>
        <mxCell id="eA0GZByuVW9Jl5713gXx-44" value="&lt;div style=&quot;color: rgb(212 , 212 , 212) ; background-color: rgb(30 , 30 , 30) ; font-family: &amp;#34;droid sans mono&amp;#34; , &amp;#34;monospace&amp;#34; , monospace ; font-size: 14px ; line-height: 19px&quot;&gt;&lt;span style=&quot;color: rgb(78 , 201 , 176)&quot;&gt;torch&lt;/span&gt;.&lt;span style=&quot;color: rgb(220 , 220 , 170)&quot;&gt;ones_like&lt;/span&gt;(&lt;span style=&quot;color: rgb(156 , 220 , 254)&quot;&gt;vtrace_returns&lt;/span&gt;.&lt;span style=&quot;color: rgb(156 , 220 , 254)&quot;&gt;log_rhos&lt;/span&gt;)&lt;/div&gt;" style="rounded=0;whiteSpace=wrap;html=1;" vertex="1" parent="1">
          <mxGeometry x="300" y="160" width="380" height="40" as="geometry" />
        </mxCell>
        <mxCell id="eA0GZByuVW9Jl5713gXx-48" style="edgeStyle=orthogonalEdgeStyle;rounded=0;orthogonalLoop=1;jettySize=auto;html=1;entryX=0;entryY=0.5;entryDx=0;entryDy=0;" edge="1" parent="1" source="eA0GZByuVW9Jl5713gXx-47" target="eA0GZByuVW9Jl5713gXx-39">
          <mxGeometry relative="1" as="geometry" />
        </mxCell>
        <mxCell id="eA0GZByuVW9Jl5713gXx-47" value="&lt;div style=&quot;color: rgb(212 , 212 , 212) ; background-color: rgb(30 , 30 , 30) ; font-family: &amp;#34;droid sans mono&amp;#34; , &amp;#34;monospace&amp;#34; , monospace ; font-size: 14px ; line-height: 19px&quot;&gt;&lt;span style=&quot;color: rgb(156 , 220 , 254)&quot;&gt;upgo_returns&lt;/span&gt;.&lt;span style=&quot;color: rgb(156 , 220 , 254)&quot;&gt;advantages&lt;/span&gt;&lt;/div&gt;" style="rounded=0;whiteSpace=wrap;html=1;" vertex="1" parent="1">
          <mxGeometry x="830" y="260" width="260" height="40" as="geometry" />
        </mxCell>
        <mxCell id="eA0GZByuVW9Jl5713gXx-50" style="edgeStyle=orthogonalEdgeStyle;rounded=0;orthogonalLoop=1;jettySize=auto;html=1;entryX=0;entryY=0.5;entryDx=0;entryDy=0;" edge="1" parent="1" source="eA0GZByuVW9Jl5713gXx-49" target="eA0GZByuVW9Jl5713gXx-39">
          <mxGeometry relative="1" as="geometry" />
        </mxCell>
        <mxCell id="eA0GZByuVW9Jl5713gXx-49" value="&lt;div style=&quot;color: rgb(212 , 212 , 212) ; background-color: rgb(30 , 30 , 30) ; font-family: &amp;#34;droid sans mono&amp;#34; , &amp;#34;monospace&amp;#34; , monospace ; font-size: 14px ; line-height: 19px&quot;&gt;&lt;span style=&quot;color: rgb(156 , 220 , 254)&quot;&gt;combined_learner_action_log_probs&lt;/span&gt;&lt;/div&gt;" style="rounded=0;whiteSpace=wrap;html=1;" vertex="1" parent="1">
          <mxGeometry x="760" y="70" width="330" height="40" as="geometry" />
        </mxCell>
        <mxCell id="eA0GZByuVW9Jl5713gXx-53" value="&lt;span&gt;entropy_loss&lt;/span&gt;" style="rounded=0;whiteSpace=wrap;html=1;" vertex="1" parent="1">
          <mxGeometry x="1330" y="985" width="120" height="60" as="geometry" />
        </mxCell>
        <mxCell id="eA0GZByuVW9Jl5713gXx-54" value="vtrace_pg_loss" style="rounded=0;whiteSpace=wrap;html=1;" vertex="1" parent="1">
          <mxGeometry x="1640" y="670" width="120" height="60" as="geometry" />
        </mxCell>
        <mxCell id="eA0GZByuVW9Jl5713gXx-55" value="baseline_loss" style="rounded=0;whiteSpace=wrap;html=1;" vertex="1" parent="1">
          <mxGeometry x="1330" y="855" width="120" height="60" as="geometry" />
        </mxCell>
        <mxCell id="eA0GZByuVW9Jl5713gXx-56" style="edgeStyle=orthogonalEdgeStyle;rounded=0;orthogonalLoop=1;jettySize=auto;html=1;entryX=0;entryY=0.5;entryDx=0;entryDy=0;" edge="1" source="eA0GZByuVW9Jl5713gXx-57" target="eA0GZByuVW9Jl5713gXx-54" parent="1">
          <mxGeometry relative="1" as="geometry" />
        </mxCell>
        <mxCell id="eA0GZByuVW9Jl5713gXx-57" value="&lt;div style=&quot;color: rgb(212 , 212 , 212) ; background-color: rgb(30 , 30 , 30) ; font-family: &amp;#34;droid sans mono&amp;#34; , &amp;#34;monospace&amp;#34; , monospace ; font-size: 14px ; line-height: 19px&quot;&gt;&lt;div&gt;&lt;span style=&quot;background-color: rgb(30 , 30 , 30) ; color: rgb(156 , 220 , 254)&quot;&gt;vtrace_returns&lt;/span&gt;&lt;span style=&quot;background-color: rgb(30 , 30 , 30) ; color: rgb(212 , 212 , 212)&quot;&gt;.&lt;/span&gt;&lt;span style=&quot;background-color: rgb(30 , 30 , 30) ; color: rgb(156 , 220 , 254)&quot;&gt;pg_advantages&lt;/span&gt;&lt;br&gt;&lt;/div&gt;&lt;/div&gt;" style="rounded=0;whiteSpace=wrap;html=1;" vertex="1" parent="1">
          <mxGeometry x="1330" y="495" width="265" height="40" as="geometry" />
        </mxCell>
        <mxCell id="eA0GZByuVW9Jl5713gXx-58" style="edgeStyle=orthogonalEdgeStyle;rounded=0;orthogonalLoop=1;jettySize=auto;html=1;entryX=0;entryY=0.5;entryDx=0;entryDy=0;" edge="1" source="eA0GZByuVW9Jl5713gXx-59" target="eA0GZByuVW9Jl5713gXx-55" parent="1">
          <mxGeometry relative="1" as="geometry" />
        </mxCell>
        <mxCell id="eA0GZByuVW9Jl5713gXx-59" value="smooth_l1 loss&amp;nbsp;" style="rounded=0;whiteSpace=wrap;html=1;" vertex="1" parent="1">
          <mxGeometry x="1140" y="855" width="120" height="60" as="geometry" />
        </mxCell>
        <mxCell id="eA0GZByuVW9Jl5713gXx-60" style="edgeStyle=orthogonalEdgeStyle;rounded=0;orthogonalLoop=1;jettySize=auto;html=1;" edge="1" source="eA0GZByuVW9Jl5713gXx-61" target="eA0GZByuVW9Jl5713gXx-53" parent="1">
          <mxGeometry relative="1" as="geometry" />
        </mxCell>
        <mxCell id="eA0GZByuVW9Jl5713gXx-61" value="&lt;div style=&quot;color: rgb(212 , 212 , 212) ; background-color: rgb(30 , 30 , 30) ; font-family: &amp;#34;droid sans mono&amp;#34; , &amp;#34;monospace&amp;#34; , monospace ; font-size: 14px ; line-height: 19px&quot;&gt;&lt;div style=&quot;color: rgb(212 , 212 , 212) ; background-color: rgb(30 , 30 , 30) ; font-family: &amp;#34;droid sans mono&amp;#34; , &amp;#34;monospace&amp;#34; , monospace ; line-height: 19px&quot;&gt;&lt;span style=&quot;color: rgb(156 , 220 , 254)&quot;&gt;combined_learner_entropy&lt;/span&gt;&lt;/div&gt;&lt;/div&gt;" style="rounded=0;whiteSpace=wrap;html=1;" vertex="1" parent="1">
          <mxGeometry x="960" y="995" width="300" height="40" as="geometry" />
        </mxCell>
        <mxCell id="eA0GZByuVW9Jl5713gXx-165" style="edgeStyle=orthogonalEdgeStyle;rounded=0;orthogonalLoop=1;jettySize=auto;html=1;entryX=0;entryY=0.5;entryDx=0;entryDy=0;" edge="1" parent="1" source="eA0GZByuVW9Jl5713gXx-63" target="eA0GZByuVW9Jl5713gXx-59">
          <mxGeometry relative="1" as="geometry" />
        </mxCell>
        <mxCell id="eA0GZByuVW9Jl5713gXx-166" style="edgeStyle=orthogonalEdgeStyle;rounded=0;orthogonalLoop=1;jettySize=auto;html=1;entryX=0;entryY=0.5;entryDx=0;entryDy=0;" edge="1" parent="1" source="eA0GZByuVW9Jl5713gXx-63" target="eA0GZByuVW9Jl5713gXx-137">
          <mxGeometry relative="1" as="geometry" />
        </mxCell>
        <mxCell id="eA0GZByuVW9Jl5713gXx-63" value="&lt;span style=&quot;color: rgb(156 , 220 , 254) ; font-family: &amp;#34;droid sans mono&amp;#34; , &amp;#34;monospace&amp;#34; , monospace ; font-size: 14px&quot;&gt;learner_outputs&lt;/span&gt;&lt;span style=&quot;color: rgb(205 , 200 , 194) ; font-family: &amp;#34;droid sans mono&amp;#34; , &amp;#34;monospace&amp;#34; , monospace ; font-size: 14px ; background-color: rgb(23 , 24 , 25)&quot;&gt;[&lt;/span&gt;&lt;span style=&quot;color: rgb(206 , 145 , 120) ; font-family: &amp;#34;droid sans mono&amp;#34; , &amp;#34;monospace&amp;#34; , monospace ; font-size: 14px&quot;&gt;&quot;baseline&quot;&lt;/span&gt;&lt;span style=&quot;color: rgb(205 , 200 , 194) ; font-family: &amp;#34;droid sans mono&amp;#34; , &amp;#34;monospace&amp;#34; , monospace ; font-size: 14px ; background-color: rgb(23 , 24 , 25)&quot;&gt;]&lt;/span&gt;" style="rounded=0;whiteSpace=wrap;html=1;" vertex="1" parent="1">
          <mxGeometry x="440" y="865" width="250" height="40" as="geometry" />
        </mxCell>
        <mxCell id="eA0GZByuVW9Jl5713gXx-68" style="edgeStyle=orthogonalEdgeStyle;rounded=0;orthogonalLoop=1;jettySize=auto;html=1;entryX=0;entryY=0.5;entryDx=0;entryDy=0;" edge="1" source="eA0GZByuVW9Jl5713gXx-69" target="eA0GZByuVW9Jl5713gXx-71" parent="1">
          <mxGeometry relative="1" as="geometry" />
        </mxCell>
        <mxCell id="eA0GZByuVW9Jl5713gXx-69" value="&lt;div style=&quot;color: rgb(212 , 212 , 212) ; background-color: rgb(30 , 30 , 30) ; font-family: &amp;#34;droid sans mono&amp;#34; , &amp;#34;monospace&amp;#34; , monospace ; font-size: 14px ; line-height: 19px&quot;&gt;&lt;span style=&quot;color: rgb(156 , 220 , 254)&quot;&gt;actions&lt;/span&gt; = &lt;span style=&quot;color: rgb(156 , 220 , 254)&quot;&gt;batch&lt;/span&gt;[&lt;span style=&quot;color: rgb(206 , 145 , 120)&quot;&gt;&quot;actions&quot;&lt;/span&gt;][&lt;span style=&quot;color: rgb(156 , 220 , 254)&quot;&gt;act_space&lt;/span&gt;]&lt;/div&gt;" style="rounded=0;whiteSpace=wrap;html=1;" vertex="1" parent="1">
          <mxGeometry x="445" y="630" width="340" height="40" as="geometry" />
        </mxCell>
        <mxCell id="eA0GZByuVW9Jl5713gXx-70" style="edgeStyle=orthogonalEdgeStyle;rounded=0;orthogonalLoop=1;jettySize=auto;html=1;entryX=0;entryY=0.5;entryDx=0;entryDy=0;" edge="1" source="eA0GZByuVW9Jl5713gXx-71" target="eA0GZByuVW9Jl5713gXx-54" parent="1">
          <mxGeometry relative="1" as="geometry" />
        </mxCell>
        <mxCell id="eA0GZByuVW9Jl5713gXx-187" style="edgeStyle=orthogonalEdgeStyle;rounded=0;orthogonalLoop=1;jettySize=auto;html=1;entryX=0;entryY=0.5;entryDx=0;entryDy=0;" edge="1" parent="1" source="eA0GZByuVW9Jl5713gXx-71" target="eA0GZByuVW9Jl5713gXx-57">
          <mxGeometry relative="1" as="geometry">
            <Array as="points">
              <mxPoint x="1260" y="700" />
              <mxPoint x="1260" y="515" />
            </Array>
          </mxGeometry>
        </mxCell>
        <mxCell id="eA0GZByuVW9Jl5713gXx-71" value="&lt;div style=&quot;color: rgb(212 , 212 , 212) ; background-color: rgb(30 , 30 , 30) ; font-family: &amp;#34;droid sans mono&amp;#34; , &amp;#34;monospace&amp;#34; , monospace ; font-size: 14px ; line-height: 19px&quot;&gt;&lt;div style=&quot;color: rgb(212 , 212 , 212) ; background-color: rgb(30 , 30 , 30) ; font-family: &amp;#34;droid sans mono&amp;#34; , &amp;#34;monospace&amp;#34; , monospace ; line-height: 19px&quot;&gt;&lt;span style=&quot;color: rgb(156 , 220 , 254)&quot;&gt;combined_learner_action_log_probs&lt;/span&gt;&lt;/div&gt;&lt;/div&gt;" style="rounded=0;whiteSpace=wrap;html=1;" vertex="1" parent="1">
          <mxGeometry x="870" y="680" width="320" height="40" as="geometry" />
        </mxCell>
        <mxCell id="eA0GZByuVW9Jl5713gXx-72" style="edgeStyle=orthogonalEdgeStyle;rounded=0;orthogonalLoop=1;jettySize=auto;html=1;entryX=0;entryY=0.5;entryDx=0;entryDy=0;" edge="1" source="eA0GZByuVW9Jl5713gXx-73" target="eA0GZByuVW9Jl5713gXx-71" parent="1">
          <mxGeometry relative="1" as="geometry" />
        </mxCell>
        <mxCell id="eA0GZByuVW9Jl5713gXx-73" value="&lt;div style=&quot;color: rgb(212 , 212 , 212) ; background-color: rgb(30 , 30 , 30) ; font-family: &amp;#34;droid sans mono&amp;#34; , &amp;#34;monospace&amp;#34; , monospace ; font-size: 14px ; line-height: 19px&quot;&gt;&lt;span style=&quot;color: rgb(156 , 220 , 254)&quot;&gt;actions_taken_mask&lt;/span&gt;&lt;/div&gt;" style="rounded=0;whiteSpace=wrap;html=1;" vertex="1" parent="1">
          <mxGeometry x="575" y="680" width="210" height="40" as="geometry" />
        </mxCell>
        <mxCell id="eA0GZByuVW9Jl5713gXx-140" style="edgeStyle=orthogonalEdgeStyle;rounded=0;orthogonalLoop=1;jettySize=auto;html=1;" edge="1" parent="1" source="eA0GZByuVW9Jl5713gXx-137" target="eA0GZByuVW9Jl5713gXx-59">
          <mxGeometry relative="1" as="geometry" />
        </mxCell>
        <mxCell id="eA0GZByuVW9Jl5713gXx-137" value="&lt;div style=&quot;color: rgb(212 , 212 , 212) ; background-color: rgb(30 , 30 , 30) ; font-family: &amp;#34;droid sans mono&amp;#34; , &amp;#34;monospace&amp;#34; , monospace ; font-size: 14px ; line-height: 19px&quot;&gt;&lt;span style=&quot;color: rgb(156 , 220 , 254)&quot;&gt;td_lambda_returns&lt;/span&gt;.&lt;span style=&quot;color: rgb(156 , 220 , 254)&quot;&gt;vs&lt;/span&gt;&lt;/div&gt;" style="rounded=0;whiteSpace=wrap;html=1;" vertex="1" parent="1">
          <mxGeometry x="850" y="805" width="200" height="40" as="geometry" />
        </mxCell>
        <mxCell id="eA0GZByuVW9Jl5713gXx-153" style="edgeStyle=orthogonalEdgeStyle;rounded=0;orthogonalLoop=1;jettySize=auto;html=1;" edge="1" parent="1" source="eA0GZByuVW9Jl5713gXx-148" target="eA0GZByuVW9Jl5713gXx-61">
          <mxGeometry relative="1" as="geometry" />
        </mxCell>
        <mxCell id="eA0GZByuVW9Jl5713gXx-148" value="&lt;span style=&quot;color: rgb(135 , 213 , 254) ; font-family: &amp;#34;droid sans mono&amp;#34; , &amp;#34;monospace&amp;#34; , monospace ; font-size: 14px ; background-color: rgb(23 , 24 , 25)&quot;&gt;any_actions_taken&lt;/span&gt;" style="rounded=0;whiteSpace=wrap;html=1;" vertex="1" parent="1">
          <mxGeometry x="630" y="1035" width="210" height="30" as="geometry" />
        </mxCell>
        <mxCell id="eA0GZByuVW9Jl5713gXx-152" style="edgeStyle=orthogonalEdgeStyle;rounded=0;orthogonalLoop=1;jettySize=auto;html=1;entryX=0;entryY=0.5;entryDx=0;entryDy=0;" edge="1" parent="1" source="eA0GZByuVW9Jl5713gXx-149" target="eA0GZByuVW9Jl5713gXx-61">
          <mxGeometry relative="1" as="geometry">
            <Array as="points">
              <mxPoint x="900" y="985" />
              <mxPoint x="900" y="1015" />
            </Array>
          </mxGeometry>
        </mxCell>
        <mxCell id="eA0GZByuVW9Jl5713gXx-149" value="&lt;div style=&quot;color: rgb(212 , 212 , 212) ; background-color: rgb(30 , 30 , 30) ; font-family: &amp;#34;droid sans mono&amp;#34; , &amp;#34;monospace&amp;#34; , monospace ; font-size: 14px ; line-height: 19px&quot;&gt;&lt;div&gt;&lt;span style=&quot;color: rgb(156 , 220 , 254)&quot;&gt;learner_policy_logits&lt;/span&gt;&lt;/div&gt;&lt;/div&gt;" style="rounded=0;whiteSpace=wrap;html=1;" vertex="1" parent="1">
          <mxGeometry x="630" y="970" width="210" height="30" as="geometry" />
        </mxCell>
        <mxCell id="eA0GZByuVW9Jl5713gXx-160" style="edgeStyle=orthogonalEdgeStyle;rounded=0;orthogonalLoop=1;jettySize=auto;html=1;entryX=0;entryY=0.5;entryDx=0;entryDy=0;" edge="1" parent="1" source="eA0GZByuVW9Jl5713gXx-154" target="eA0GZByuVW9Jl5713gXx-137">
          <mxGeometry relative="1" as="geometry" />
        </mxCell>
        <mxCell id="eA0GZByuVW9Jl5713gXx-154" value="&lt;div style=&quot;color: rgb(212 , 212 , 212) ; background-color: rgb(30 , 30 , 30) ; font-family: &amp;#34;droid sans mono&amp;#34; , &amp;#34;monospace&amp;#34; , monospace ; font-size: 14px ; line-height: 19px&quot;&gt;&lt;div&gt; &lt;span style=&quot;color: rgb(156 , 220 , 254)&quot;&gt;rewards&lt;/span&gt;=&lt;span style=&quot;color: rgb(156 , 220 , 254)&quot;&gt;batch&lt;/span&gt;[&lt;span style=&quot;color: rgb(206 , 145 , 120)&quot;&gt;&quot;reward&quot;&lt;/span&gt;]&lt;/div&gt;&lt;/div&gt;" style="rounded=0;whiteSpace=wrap;html=1;" vertex="1" parent="1">
          <mxGeometry x="440" y="750" width="250" height="35" as="geometry" />
        </mxCell>
        <mxCell id="eA0GZByuVW9Jl5713gXx-159" style="edgeStyle=orthogonalEdgeStyle;rounded=0;orthogonalLoop=1;jettySize=auto;html=1;entryX=0;entryY=0.5;entryDx=0;entryDy=0;" edge="1" parent="1" source="eA0GZByuVW9Jl5713gXx-155" target="eA0GZByuVW9Jl5713gXx-149">
          <mxGeometry relative="1" as="geometry" />
        </mxCell>
        <mxCell id="eA0GZByuVW9Jl5713gXx-155" value="&lt;div style=&quot;color: rgb(212 , 212 , 212) ; background-color: rgb(30 , 30 , 30) ; font-family: &amp;#34;droid sans mono&amp;#34; , &amp;#34;monospace&amp;#34; , monospace ; font-size: 14px ; line-height: 19px&quot;&gt;&lt;span style=&quot;color: rgb(156 , 220 , 254)&quot;&gt;learner_outputs&lt;/span&gt;[&lt;span style=&quot;color: rgb(206 , 145 , 120)&quot;&gt;&quot;policy_logits&quot;&lt;/span&gt;][&lt;span style=&quot;color: rgb(156 , 220 , 254)&quot;&gt;act_space&lt;/span&gt;]&lt;/div&gt;" style="rounded=0;whiteSpace=wrap;html=1;" vertex="1" parent="1">
          <mxGeometry x="160" y="970" width="400" height="30" as="geometry" />
        </mxCell>
        <mxCell id="eA0GZByuVW9Jl5713gXx-158" style="edgeStyle=orthogonalEdgeStyle;rounded=0;orthogonalLoop=1;jettySize=auto;html=1;entryX=0;entryY=0.5;entryDx=0;entryDy=0;" edge="1" parent="1" source="eA0GZByuVW9Jl5713gXx-156" target="eA0GZByuVW9Jl5713gXx-148">
          <mxGeometry relative="1" as="geometry" />
        </mxCell>
        <mxCell id="eA0GZByuVW9Jl5713gXx-156" value="&lt;div style=&quot;color: rgb(212 , 212 , 212) ; background-color: rgb(30 , 30 , 30) ; font-family: &amp;#34;droid sans mono&amp;#34; , &amp;#34;monospace&amp;#34; , monospace ; font-size: 14px ; line-height: 19px&quot;&gt;&lt;span style=&quot;color: rgb(156 , 220 , 254)&quot;&gt;batch&lt;/span&gt;[&lt;span style=&quot;color: rgb(206 , 145 , 120)&quot;&gt;&quot;info&quot;&lt;/span&gt;][&lt;span style=&quot;color: rgb(206 , 145 , 120)&quot;&gt;&quot;actions_taken&quot;&lt;/span&gt;][&lt;span style=&quot;color: rgb(156 , 220 , 254)&quot;&gt;act_space&lt;/span&gt;]&lt;/div&gt;" style="rounded=0;whiteSpace=wrap;html=1;" vertex="1" parent="1">
          <mxGeometry x="190" y="1033.75" width="370" height="32.5" as="geometry" />
        </mxCell>
        <mxCell id="eA0GZByuVW9Jl5713gXx-163" style="edgeStyle=orthogonalEdgeStyle;rounded=0;orthogonalLoop=1;jettySize=auto;html=1;entryX=0;entryY=0.5;entryDx=0;entryDy=0;" edge="1" parent="1" source="eA0GZByuVW9Jl5713gXx-161" target="eA0GZByuVW9Jl5713gXx-137">
          <mxGeometry relative="1" as="geometry" />
        </mxCell>
        <mxCell id="eA0GZByuVW9Jl5713gXx-161" value="&lt;div style=&quot;color: rgb(212 , 212 , 212) ; background-color: rgb(30 , 30 , 30) ; font-family: &amp;#34;droid sans mono&amp;#34; , &amp;#34;monospace&amp;#34; , monospace ; font-size: 14px ; line-height: 19px&quot;&gt;&lt;span style=&quot;color: rgb(156 , 220 , 254)&quot;&gt;learner_outputs&lt;/span&gt;[&lt;span style=&quot;color: rgb(206 , 145 , 120)&quot;&gt;&quot;baseline&quot;&lt;/span&gt;][-&lt;span style=&quot;color: rgb(181 , 206 , 168)&quot;&gt;1&lt;/span&gt;]&lt;/div&gt;" style="rounded=0;whiteSpace=wrap;html=1;" vertex="1" parent="1">
          <mxGeometry x="400" y="805" width="290" height="40" as="geometry" />
        </mxCell>
        <mxCell id="eA0GZByuVW9Jl5713gXx-168" style="edgeStyle=orthogonalEdgeStyle;rounded=0;orthogonalLoop=1;jettySize=auto;html=1;entryX=0;entryY=0.5;entryDx=0;entryDy=0;" edge="1" parent="1" source="eA0GZByuVW9Jl5713gXx-167" target="eA0GZByuVW9Jl5713gXx-73">
          <mxGeometry relative="1" as="geometry" />
        </mxCell>
        <mxCell id="eA0GZByuVW9Jl5713gXx-167" value="&lt;div style=&quot;color: rgb(212 , 212 , 212) ; background-color: rgb(30 , 30 , 30) ; font-family: &amp;#34;droid sans mono&amp;#34; , &amp;#34;monospace&amp;#34; , monospace ; font-size: 14px ; line-height: 19px&quot;&gt;&lt;span style=&quot;color: rgb(156 , 220 , 254)&quot;&gt;batch&lt;/span&gt;[&lt;span style=&quot;color: rgb(206 , 145 , 120)&quot;&gt;&quot;info&quot;&lt;/span&gt;][&lt;span style=&quot;color: rgb(206 , 145 , 120)&quot;&gt;&quot;actions_taken&quot;&lt;/span&gt;][&lt;span style=&quot;color: rgb(156 , 220 , 254)&quot;&gt;act_space&lt;/span&gt;]&lt;/div&gt;" style="rounded=0;whiteSpace=wrap;html=1;" vertex="1" parent="1">
          <mxGeometry x="20" y="680" width="380" height="40" as="geometry" />
        </mxCell>
        <mxCell id="eA0GZByuVW9Jl5713gXx-202" style="edgeStyle=orthogonalEdgeStyle;rounded=0;orthogonalLoop=1;jettySize=auto;html=1;entryX=0;entryY=0.5;entryDx=0;entryDy=0;" edge="1" parent="1" source="eA0GZByuVW9Jl5713gXx-169" target="eA0GZByuVW9Jl5713gXx-71">
          <mxGeometry relative="1" as="geometry" />
        </mxCell>
        <mxCell id="eA0GZByuVW9Jl5713gXx-169" value="&lt;div style=&quot;color: rgb(212 , 212 , 212) ; background-color: rgb(30 , 30 , 30) ; font-family: &amp;#34;droid sans mono&amp;#34; , &amp;#34;monospace&amp;#34; , monospace ; font-size: 14px ; line-height: 19px&quot;&gt;&lt;span style=&quot;color: rgb(156 , 220 , 254)&quot;&gt;learner_outputs&lt;/span&gt;[&lt;span style=&quot;color: rgb(206 , 145 , 120)&quot;&gt;&quot;policy_logits&quot;&lt;/span&gt;][&lt;span style=&quot;color: rgb(156 , 220 , 254)&quot;&gt;act_space&lt;/span&gt;]&lt;/div&gt;" style="rounded=0;whiteSpace=wrap;html=1;" vertex="1" parent="1">
          <mxGeometry x="395" y="575" width="390" height="40" as="geometry" />
        </mxCell>
        <mxCell id="eA0GZByuVW9Jl5713gXx-186" style="edgeStyle=orthogonalEdgeStyle;rounded=0;orthogonalLoop=1;jettySize=auto;html=1;entryX=0;entryY=0.5;entryDx=0;entryDy=0;" edge="1" parent="1" source="eA0GZByuVW9Jl5713gXx-172" target="eA0GZByuVW9Jl5713gXx-57">
          <mxGeometry relative="1" as="geometry" />
        </mxCell>
        <mxCell id="eA0GZByuVW9Jl5713gXx-172" value="&lt;div style=&quot;color: rgb(212 , 212 , 212) ; background-color: rgb(30 , 30 , 30) ; font-family: &amp;#34;droid sans mono&amp;#34; , &amp;#34;monospace&amp;#34; , monospace ; font-size: 14px ; line-height: 19px&quot;&gt;&lt;div&gt;&lt;span style=&quot;color: rgb(156 , 220 , 254)&quot;&gt;combined_behavior_action_log_probs&lt;/span&gt;&lt;/div&gt;&lt;/div&gt;" style="rounded=0;whiteSpace=wrap;html=1;" vertex="1" parent="1">
          <mxGeometry x="870" y="420" width="320" height="45" as="geometry" />
        </mxCell>
        <mxCell id="eA0GZByuVW9Jl5713gXx-180" style="edgeStyle=orthogonalEdgeStyle;rounded=0;orthogonalLoop=1;jettySize=auto;html=1;entryX=0;entryY=0.5;entryDx=0;entryDy=0;" edge="1" parent="1" source="eA0GZByuVW9Jl5713gXx-177" target="eA0GZByuVW9Jl5713gXx-57">
          <mxGeometry relative="1" as="geometry" />
        </mxCell>
        <mxCell id="eA0GZByuVW9Jl5713gXx-177" value="&lt;span style=&quot;color: rgb(156 , 220 , 254) ; font-family: &amp;#34;droid sans mono&amp;#34; , &amp;#34;monospace&amp;#34; , monospace ; font-size: 14px&quot;&gt;learner_outputs&lt;/span&gt;&lt;span style=&quot;color: rgb(205 , 200 , 194) ; font-family: &amp;#34;droid sans mono&amp;#34; , &amp;#34;monospace&amp;#34; , monospace ; font-size: 14px ; background-color: rgb(23 , 24 , 25)&quot;&gt;[&lt;/span&gt;&lt;span style=&quot;color: rgb(206 , 145 , 120) ; font-family: &amp;#34;droid sans mono&amp;#34; , &amp;#34;monospace&amp;#34; , monospace ; font-size: 14px&quot;&gt;&quot;baseline&quot;&lt;/span&gt;&lt;span style=&quot;color: rgb(205 , 200 , 194) ; font-family: &amp;#34;droid sans mono&amp;#34; , &amp;#34;monospace&amp;#34; , monospace ; font-size: 14px ; background-color: rgb(23 , 24 , 25)&quot;&gt;]&lt;/span&gt;" style="rounded=0;whiteSpace=wrap;html=1;" vertex="1" parent="1">
          <mxGeometry x="940" y="590" width="250" height="30" as="geometry" />
        </mxCell>
        <mxCell id="eA0GZByuVW9Jl5713gXx-183" style="edgeStyle=orthogonalEdgeStyle;rounded=0;orthogonalLoop=1;jettySize=auto;html=1;entryX=0;entryY=0.5;entryDx=0;entryDy=0;" edge="1" parent="1" source="eA0GZByuVW9Jl5713gXx-178" target="eA0GZByuVW9Jl5713gXx-57">
          <mxGeometry relative="1" as="geometry" />
        </mxCell>
        <mxCell id="eA0GZByuVW9Jl5713gXx-178" value="&lt;div style=&quot;color: rgb(212 , 212 , 212) ; background-color: rgb(30 , 30 , 30) ; font-family: &amp;#34;droid sans mono&amp;#34; , &amp;#34;monospace&amp;#34; , monospace ; font-size: 14px ; line-height: 19px&quot;&gt;&lt;div&gt; &lt;span style=&quot;color: rgb(156 , 220 , 254)&quot;&gt;rewards&lt;/span&gt;=&lt;span style=&quot;color: rgb(156 , 220 , 254)&quot;&gt;batch&lt;/span&gt;[&lt;span style=&quot;color: rgb(206 , 145 , 120)&quot;&gt;&quot;reward&quot;&lt;/span&gt;]&lt;/div&gt;&lt;/div&gt;" style="rounded=0;whiteSpace=wrap;html=1;" vertex="1" parent="1">
          <mxGeometry x="940" y="497.5" width="250" height="35" as="geometry" />
        </mxCell>
        <mxCell id="eA0GZByuVW9Jl5713gXx-182" style="edgeStyle=orthogonalEdgeStyle;rounded=0;orthogonalLoop=1;jettySize=auto;html=1;entryX=0;entryY=0.5;entryDx=0;entryDy=0;" edge="1" parent="1" source="eA0GZByuVW9Jl5713gXx-179" target="eA0GZByuVW9Jl5713gXx-57">
          <mxGeometry relative="1" as="geometry" />
        </mxCell>
        <mxCell id="eA0GZByuVW9Jl5713gXx-179" value="&lt;div style=&quot;color: rgb(212 , 212 , 212) ; background-color: rgb(30 , 30 , 30) ; font-family: &amp;#34;droid sans mono&amp;#34; , &amp;#34;monospace&amp;#34; , monospace ; font-size: 14px ; line-height: 19px&quot;&gt;&lt;span style=&quot;color: rgb(156 , 220 , 254)&quot;&gt;learner_outputs&lt;/span&gt;[&lt;span style=&quot;color: rgb(206 , 145 , 120)&quot;&gt;&quot;baseline&quot;&lt;/span&gt;][-&lt;span style=&quot;color: rgb(181 , 206 , 168)&quot;&gt;1&lt;/span&gt;]&lt;/div&gt;" style="rounded=0;whiteSpace=wrap;html=1;" vertex="1" parent="1">
          <mxGeometry x="900" y="545" width="290" height="30" as="geometry" />
        </mxCell>
        <mxCell id="eA0GZByuVW9Jl5713gXx-200" style="edgeStyle=orthogonalEdgeStyle;rounded=0;orthogonalLoop=1;jettySize=auto;html=1;entryX=0;entryY=0.5;entryDx=0;entryDy=0;" edge="1" parent="1" source="eA0GZByuVW9Jl5713gXx-196" target="eA0GZByuVW9Jl5713gXx-172">
          <mxGeometry relative="1" as="geometry" />
        </mxCell>
        <mxCell id="eA0GZByuVW9Jl5713gXx-196" value="&lt;div style=&quot;color: rgb(212 , 212 , 212) ; background-color: rgb(30 , 30 , 30) ; font-family: &amp;#34;droid sans mono&amp;#34; , &amp;#34;monospace&amp;#34; , monospace ; font-size: 14px ; line-height: 19px&quot;&gt;&lt;span style=&quot;color: rgb(156 , 220 , 254)&quot;&gt;actions&lt;/span&gt; = &lt;span style=&quot;color: rgb(156 , 220 , 254)&quot;&gt;batch&lt;/span&gt;[&lt;span style=&quot;color: rgb(206 , 145 , 120)&quot;&gt;&quot;actions&quot;&lt;/span&gt;][&lt;span style=&quot;color: rgb(156 , 220 , 254)&quot;&gt;act_space&lt;/span&gt;]&lt;/div&gt;" style="rounded=0;whiteSpace=wrap;html=1;" vertex="1" parent="1">
          <mxGeometry x="460" y="422.5" width="340" height="40" as="geometry" />
        </mxCell>
        <mxCell id="eA0GZByuVW9Jl5713gXx-197" value="&lt;div style=&quot;color: rgb(212 , 212 , 212) ; background-color: rgb(30 , 30 , 30) ; font-family: &amp;#34;droid sans mono&amp;#34; , &amp;#34;monospace&amp;#34; , monospace ; font-size: 14px ; line-height: 19px&quot;&gt;&lt;span style=&quot;color: rgb(156 , 220 , 254)&quot;&gt;batch&lt;/span&gt;[&lt;span style=&quot;color: rgb(206 , 145 , 120)&quot;&gt;&quot;info&quot;&lt;/span&gt;][&lt;span style=&quot;color: rgb(206 , 145 , 120)&quot;&gt;&quot;actions_taken&quot;&lt;/span&gt;][&lt;span style=&quot;color: rgb(156 , 220 , 254)&quot;&gt;act_space&lt;/span&gt;]&lt;/div&gt;" style="rounded=0;whiteSpace=wrap;html=1;" vertex="1" parent="1">
          <mxGeometry x="80" y="480" width="380" height="40" as="geometry" />
        </mxCell>
        <mxCell id="eA0GZByuVW9Jl5713gXx-198" style="edgeStyle=orthogonalEdgeStyle;rounded=0;orthogonalLoop=1;jettySize=auto;html=1;entryX=0;entryY=0.5;entryDx=0;entryDy=0;" edge="1" source="eA0GZByuVW9Jl5713gXx-197" target="eA0GZByuVW9Jl5713gXx-199" parent="1">
          <mxGeometry relative="1" as="geometry" />
        </mxCell>
        <mxCell id="eA0GZByuVW9Jl5713gXx-205" style="edgeStyle=orthogonalEdgeStyle;rounded=0;orthogonalLoop=1;jettySize=auto;html=1;entryX=0;entryY=0.5;entryDx=0;entryDy=0;" edge="1" parent="1" source="eA0GZByuVW9Jl5713gXx-199" target="eA0GZByuVW9Jl5713gXx-172">
          <mxGeometry relative="1" as="geometry" />
        </mxCell>
        <mxCell id="eA0GZByuVW9Jl5713gXx-199" value="&lt;div style=&quot;color: rgb(212 , 212 , 212) ; background-color: rgb(30 , 30 , 30) ; font-family: &amp;#34;droid sans mono&amp;#34; , &amp;#34;monospace&amp;#34; , monospace ; font-size: 14px ; line-height: 19px&quot;&gt;&lt;span style=&quot;color: rgb(156 , 220 , 254)&quot;&gt;actions_taken_mask&lt;/span&gt;&lt;/div&gt;" style="rounded=0;whiteSpace=wrap;html=1;" vertex="1" parent="1">
          <mxGeometry x="590" y="480" width="210" height="40" as="geometry" />
        </mxCell>
        <mxCell id="eA0GZByuVW9Jl5713gXx-204" style="edgeStyle=orthogonalEdgeStyle;rounded=0;orthogonalLoop=1;jettySize=auto;html=1;entryX=0;entryY=0.5;entryDx=0;entryDy=0;" edge="1" parent="1" source="eA0GZByuVW9Jl5713gXx-203" target="eA0GZByuVW9Jl5713gXx-172">
          <mxGeometry relative="1" as="geometry" />
        </mxCell>
        <mxCell id="eA0GZByuVW9Jl5713gXx-203" value="&lt;div style=&quot;color: rgb(212 , 212 , 212) ; background-color: rgb(30 , 30 , 30) ; font-family: &amp;#34;droid sans mono&amp;#34; , &amp;#34;monospace&amp;#34; , monospace ; font-size: 14px ; line-height: 19px&quot;&gt;&lt;span style=&quot;color: rgb(156 , 220 , 254)&quot;&gt;batch&lt;/span&gt;[&lt;span style=&quot;color: rgb(206 , 145 , 120)&quot;&gt;&quot;policy_logits&quot;&lt;/span&gt;][&lt;span style=&quot;color: rgb(156 , 220 , 254)&quot;&gt;act_space&lt;/span&gt;]&lt;/div&gt;" style="rounded=0;whiteSpace=wrap;html=1;" vertex="1" parent="1">
          <mxGeometry x="500" y="370" width="300" height="40" as="geometry" />
        </mxCell>
        <mxCell id="eA0GZByuVW9Jl5713gXx-212" style="edgeStyle=orthogonalEdgeStyle;rounded=0;orthogonalLoop=1;jettySize=auto;html=1;entryX=0;entryY=0.5;entryDx=0;entryDy=0;" edge="1" parent="1" source="eA0GZByuVW9Jl5713gXx-211" target="eA0GZByuVW9Jl5713gXx-23">
          <mxGeometry relative="1" as="geometry" />
        </mxCell>
        <mxCell id="eA0GZByuVW9Jl5713gXx-211" value="&lt;div style=&quot;color: rgb(212 , 212 , 212) ; background-color: rgb(30 , 30 , 30) ; font-family: &amp;#34;droid sans mono&amp;#34; , &amp;#34;monospace&amp;#34; , monospace ; font-size: 14px ; line-height: 19px&quot;&gt;&lt;span style=&quot;color: rgb(156 , 220 , 254)&quot;&gt;learner_policy_logits&lt;/span&gt;&lt;/div&gt;" style="rounded=0;whiteSpace=wrap;html=1;" vertex="1" parent="1">
          <mxGeometry x="2025" y="205" width="265" height="40" as="geometry" />
        </mxCell>
        <mxCell id="eA0GZByuVW9Jl5713gXx-217" style="edgeStyle=orthogonalEdgeStyle;rounded=0;orthogonalLoop=1;jettySize=auto;html=1;entryX=0;entryY=0.5;entryDx=0;entryDy=0;" edge="1" parent="1" source="eA0GZByuVW9Jl5713gXx-216" target="eA0GZByuVW9Jl5713gXx-23">
          <mxGeometry relative="1" as="geometry" />
        </mxCell>
        <mxCell id="eA0GZByuVW9Jl5713gXx-216" value="&lt;div style=&quot;color: rgb(212 , 212 , 212) ; background-color: rgb(30 , 30 , 30) ; font-family: &amp;#34;droid sans mono&amp;#34; , &amp;#34;monospace&amp;#34; , monospace ; font-size: 14px ; line-height: 19px&quot;&gt;&lt;span style=&quot;color: rgb(156 , 220 , 254)&quot;&gt;any_actions_taken&lt;/span&gt;&lt;/div&gt;" style="rounded=0;whiteSpace=wrap;html=1;" vertex="1" parent="1">
          <mxGeometry x="2070" y="270" width="220" height="40" as="geometry" />
        </mxCell>
      </root>
    </mxGraphModel>
  </diagram>
</mxfile>
